<?xml version="1.0" encoding="UTF-8" standalone="no"?>
<!-- Created with Inkscape (http://www.inkscape.org/) -->

<svg
   width="150px"
   height="150px"
   viewBox="0 0 191.29379 157.37126"
   version="1.1"
   id="svg1"
   xml:space="preserve"
   inkscape:version="1.4.2 (f4327f4, 2025-05-13)"
   sodipodi:docname="mkcommit.svg"
   xmlns:inkscape="http://www.inkscape.org/namespaces/inkscape"
   xmlns:sodipodi="http://sodipodi.sourceforge.net/DTD/sodipodi-0.dtd"
   xmlns="http://www.w3.org/2000/svg"
   xmlns:svg="http://www.w3.org/2000/svg"><sodipodi:namedview
     id="namedview1"
     pagecolor="#ffffff"
     bordercolor="#000000"
     borderopacity="0.25"
     inkscape:showpageshadow="2"
     inkscape:pageopacity="0.0"
     inkscape:pagecheckerboard="0"
     inkscape:deskcolor="#d1d1d1"
     inkscape:document-units="mm"
     inkscape:zoom="0.68862935"
     inkscape:cx="366.6704"
     inkscape:cy="323.1056"
     inkscape:window-width="1920"
     inkscape:window-height="991"
     inkscape:window-x="-9"
     inkscape:window-y="-9"
     inkscape:window-maximized="1"
     inkscape:current-layer="layer1" /><defs
     id="defs1" /><g
     inkscape:label="Layer 1"
     inkscape:groupmode="layer"
     id="layer1"
     transform="translate(-8.2274062,-63.093603)"><path
       style="fill:#000000"
       d="m 68.780666,220.0108 c -7.25102,-2.40274 -9.44805,-12.29222 -3.94841,-17.77295 4.56769,-4.55197 13.03135,-3.51645 15.74354,1.92621 1.03663,2.08025 0.99854,2.14472 -1.49973,2.53782 -1.70046,0.26756 -2.19976,0.27214 -2.28349,0.0209 -0.24786,-0.74357 -1.99451,-2.35662 -2.86171,-2.64283 -1.53539,-0.50672 -3.84515,-0.20827 -4.95816,0.64067 -1.53679,1.17216 -2.13014,2.57889 -2.13552,5.06289 -0.006,2.7544 0.71121,4.33638 2.48095,5.47267 1.10778,0.71127 1.38935,0.77446 3.09531,0.69455 1.54677,-0.0724 2.03994,-0.21243 2.8055,-0.79635 0.51085,-0.38965 1.07978,-1.07289 1.26428,-1.51831 0.2996,-0.7233 0.45533,-0.80985 1.45705,-0.80985 1.85765,0 3.57671,0.31488 3.57671,0.65516 0,0.17526 -0.36533,1.04973 -0.81184,1.94327 -0.93272,1.86655 -2.40889,3.26586 -4.44817,4.2166 -1.94906,0.90867 -5.34303,1.07641 -7.47631,0.36951 z m 22.77179,0.14362 c -2.75934,-0.78286 -5.27625,-2.96982 -6.55345,-5.69432 -0.63217,-1.34855 -0.70258,-1.79812 -0.69095,-4.41197 0.0159,-3.57894 0.58849,-5.26581 2.49563,-7.35253 4.95294,-5.41931 13.881894,-4.02436 17.008574,2.65721 2.0256,4.3286 0.82099,9.96368 -2.73137,12.7772 -2.494894,1.97599 -6.614294,2.8512 -9.528434,2.02441 z m 5.25475,-4.65658 c 2.07688,-1.06509 3.04871,-2.79884 3.05477,-5.44971 0.009,-4.01905 -2.22224,-6.39621 -5.79078,-6.16898 -3.28288,0.20903 -5.02726,2.31595 -4.99796,6.03669 0.0117,1.48077 0.15659,2.25296 0.57108,3.04271 0.64491,1.22877 1.77621,2.37071 2.72058,2.74618 1.12406,0.44691 3.37154,0.34223 4.44231,-0.20689 z m 97.305284,4.62264 c -2.00953,-0.74688 -3.30484,-2.15068 -3.89878,-4.22533 -0.1881,-0.65704 -0.31824,-3.19594 -0.33017,-6.44124 l -0.0197,-5.35673 -1.78594,-0.001 -1.78594,-0.001 v -2.10458 -2.10458 l 1.75719,-0.0782 1.75719,-0.0782 -0.0529,-2.57969 -0.0529,-2.57968 h 2.39676 2.39676 v 2.64583 2.64583 h 2.51354 2.51354 v 2.11667 2.11667 h -2.52927 -2.52926 l 0.0819,5.18163 0.0819,5.18163 0.86407,0.77149 c 0.92444,0.8254 2.49221,1.04709 3.51895,0.4976 0.48629,-0.26026 0.51177,-0.16774 0.51177,1.85864 0,2.06249 -0.023,2.14126 -0.69993,2.39863 -1.26427,0.48068 -3.59966,0.54805 -4.70873,0.13585 z M 8.2274062,209.91584 v -10.05417 h 2.3812498 2.38125 v 1.36017 1.36017 l 1.07656,-1.22304 c 1.5986,-1.8161 3.68837,-2.36081 6.63379,-1.72913 1.08078,0.23178 1.68638,0.58103 2.74717,1.58428 l 1.36077,1.28696 1.18525,-1.13567 c 1.58928,-1.5228 3.59202,-2.16769 5.97399,-1.92365 2.85797,0.29281 4.74261,1.64193 5.94589,4.25637 0.58221,1.26499 0.61257,1.65021 0.69343,8.7974 l 0.0846,7.47448 h -2.53196 -2.53195 v -6.64075 c 0,-5.65517 -0.0656,-6.77893 -0.44185,-7.57186 -1.26941,-2.67509 -5.201,-2.56522 -6.81989,0.19059 -0.50868,0.86592 -0.54347,1.34434 -0.54347,7.47334 v 6.5482 l -2.4474,2.4e-4 -2.44739,2.4e-4 v -6.64075 c 0,-5.65517 -0.0656,-6.77893 -0.44185,-7.57186 -0.58494,-1.23267 -1.76692,-1.92475 -3.28934,-1.92599 -1.57662,-0.001 -2.82683,0.82006 -3.611,2.37232 -0.56765,1.12365 -0.59531,1.47084 -0.59531,7.47234 v 6.29394 h -2.38125 -2.3812498 z m 34.3958298,-3.96875 v -14.02292 h 2.50977 2.50977 l 0.0699,8.15809 0.0699,8.15808 3.70417,-4.18442 3.70417,-4.18443 2.86413,-0.005 2.86414,-0.005 -3.16578,3.50573 c -1.74117,1.92815 -3.41698,3.73254 -3.72403,4.00976 -0.30704,0.27721 -0.55826,0.61445 -0.55826,0.74942 0,0.20529 3.81994,5.71548 7.33918,10.58665 l 0.90798,1.25678 h -3.0315 -3.03149 l -2.74573,-4.21552 c -1.51015,-2.31854 -2.87039,-4.22354 -3.02276,-4.23334 -0.15237,-0.01 -0.71791,0.43369 -1.25677,0.98553 l -0.97974,1.00335 v 3.22999 3.22999 h -2.51355 -2.51354 z m 65.616664,3.96875 v -10.05417 h 2.38125 2.38125 v 1.31596 1.31595 l 1.16614,-1.16614 c 2.61852,-2.61852 7.19977,-2.63878 9.79523,-0.0433 l 1.12282,1.12282 1.25519,-1.1364 c 2.75296,-2.49242 7.31336,-2.56335 9.97888,-0.15521 2.2713,2.05198 2.61091,3.64579 2.61091,12.25312 v 6.60156 h -2.51354 -2.51355 v -6.76002 c 0,-5.5856 -0.0712,-6.89766 -0.40972,-7.55232 -1.3498,-2.61024 -5.65648,-2.35076 -6.99858,0.42166 -0.48448,1.0008 -0.52919,1.63383 -0.52919,7.49192 v 6.39876 h -2.38125 -2.38125 l -0.001,-6.15157 c -8.4e-4,-3.50247 -0.12181,-6.5849 -0.28091,-7.15785 -0.15369,-0.55346 -0.61951,-1.3869 -1.03516,-1.85208 -0.70345,-0.7873 -0.87482,-0.8458 -2.47781,-0.8458 -1.86121,0 -2.65992,0.39014 -3.72892,1.82143 -0.51751,0.69289 -0.54552,1.07575 -0.54552,7.45758 v 6.72719 l -2.44739,5.5e-4 -2.4474,5.5e-4 z m 35.18958,0 v -10.05417 h 2.38125 2.38125 v 1.3832 1.3832 l 0.81935,-0.994 c 1.30644,-1.58494 2.64751,-2.14536 5.13378,-2.14536 2.4667,0 3.87467,0.57969 5.08144,2.09211 0.40667,0.50967 0.80739,0.92667 0.8905,0.92668 0.0831,0 0.7062,-0.53187 1.38465,-1.18195 2.87426,-2.75402 7.93592,-2.5974 10.50846,0.32516 1.86112,2.11434 2.11099,3.47177 2.11099,11.468 v 6.8513 h -2.51354 -2.51354 v -6.49079 c 0,-7.02537 -0.0956,-7.61235 -1.44243,-8.85505 -0.60793,-0.56093 -0.97235,-0.66146 -2.39797,-0.66146 -1.50402,0 -1.76998,0.0836 -2.52482,0.79375 -1.48917,1.401 -1.57228,1.8691 -1.57228,8.85505 v 6.3585 h -2.51354 -2.51355 v -6.84004 c 0,-6.68192 -0.0139,-6.86074 -0.60325,-7.73521 -0.76551,-1.13594 -1.60034,-1.55578 -3.10091,-1.55945 -1.53246,-0.004 -2.73415,0.72902 -3.42891,2.09086 -0.49999,0.98005 -0.53984,1.53752 -0.53984,7.551 v 6.49284 h -2.51354 -2.51355 z m 35.18959,0 v -10.05417 h 2.51354 2.51354 v 10.05417 10.05417 h -2.51354 -2.51354 z m 0.75092,-12.83911 c -0.42423,-0.23041 -0.88149,-0.84653 -1.14993,-1.54943 -0.41944,-1.09829 -0.41871,-1.22369 0.0124,-2.1321 0.53468,-1.12675 1.55675,-1.73561 2.91351,-1.73561 1.43933,0 2.7648,1.39528 2.7648,2.91042 0,0.91099 -0.16211,1.27336 -0.89958,2.01083 -0.71835,0.71835 -1.10481,0.89745 -1.91823,0.88899 -0.56026,-0.006 -1.33557,-0.18272 -1.72293,-0.3931 z M 61.974226,175.89226 c -1.93246,-0.42288 -4.59654,-1.66368 -5.88941,-2.74302 l -0.88756,-0.74096 9.30592,-9.49049 c 5.11825,-5.21977 12.40837,-12.58421 16.20026,-16.36544 l 6.89434,-6.87494 7.07991,7.04972 c 5.861154,5.83615 7.267664,7.1048 8.170474,7.36968 2.15664,0.63275 2.21488,0.58694 13.33684,-10.49144 5.60673,-5.58476 10.30407,-10.15411 10.43853,-10.15411 0.13447,0 1.75659,1.49616 3.60471,3.3248 3.22251,3.18853 3.40087,3.32136 4.35185,3.24114 0.7064,-0.0596 1.14202,-0.28597 1.51453,-0.78707 0.53862,-0.72456 0.77134,-3.73807 1.41169,-18.28043 l 0.18349,-4.16719 h -11.80208 c -8.31491,0 -11.99894,0.0897 -12.46834,0.30357 -0.38085,0.17352 -0.78928,0.67634 -0.95345,1.17378 -0.40998,1.24224 0.1336,2.14345 3.41432,5.66063 l 2.74555,2.94345 -7.30454,7.32855 -7.30455,7.32856 -7.082684,-7.03166 c -3.89547,-3.86741 -7.41569,-7.1714 -7.82272,-7.34219 -1.07319,-0.45031 -2.32667,-0.37843 -3.1769,0.18217 -0.40807,0.26906 -8.81506,8.54312 -18.68219,18.3868 -9.86714,9.84367 -18.0687,17.89759 -18.2257,17.89759 -0.15699,0 -0.36836,-0.55298 -0.46972,-1.22884 -0.10135,-0.67586 -0.18942,-20.05328 -0.19571,-43.06093 l -0.0114,-41.832101 0.70616,-2.116666 c 0.94474,-2.831798 1.96651,-4.532754 4.04879,-6.740082 2.01585,-2.136902 4.19895,-3.595795 6.9867,-4.668979 l 1.97882,-0.761772 41.274994,-0.07401 c 46.24759,-0.08293 43.15479,-0.204116 47.30403,1.853563 2.95299,1.46444 6.24839,4.740196 7.65882,7.613157 1.89645,3.862946 1.78202,0.855718 1.78636,46.94663 0.004,46.46956 0.14478,43.0417 -1.92968,47.11274 -0.81374,1.59693 -1.63455,2.67209 -3.34281,4.3787 -2.59318,2.59068 -4.8751,3.92845 -8.11402,4.75683 -1.98911,0.50873 -3.05163,0.52109 -42.54513,0.49519 -33.554804,-0.022 -40.793924,-0.0898 -42.188444,-0.39493 z m 74.702564,-12.34465 c 0.40875,-0.35516 0.74807,-0.99061 0.84113,-1.57522 0.13478,-0.84667 0.0464,-1.08951 -0.65004,-1.78594 l -0.80602,-0.80602 h -16.13642 -16.13641 l -0.68498,0.81405 c -0.9278,1.10263 -0.89755,2.18908 0.0884,3.17505 l 0.77339,0.7734 h 16.01289 16.01289 z m 0.15846,-10.76141 c 0.52785,-0.52785 0.7734,-1.03834 0.7734,-1.60786 0,-0.56951 -0.24555,-1.08001 -0.7734,-1.60785 l -0.77339,-0.7734 h -7.97821 -7.9782 l -0.7734,0.7734 c -0.52784,0.52784 -0.7734,1.03834 -0.7734,1.60785 0,0.56952 0.24556,1.08001 0.7734,1.60786 l 0.7734,0.77339 h 7.9782 7.97821 z m -12.95358,-42.68442 c 0.0172,-0.76398 0.012,-1.53789 -0.0116,-1.71979 -0.0263,-0.20256 0.27423,-0.33073 0.77554,-0.33073 2.19785,0 3.42642,-1.75506 3.42642,-4.89479 0,-2.02204 -0.63576,-3.865981 -1.48724,-4.313551 -0.26703,-0.14036 -0.99153,-0.33903 -1.60999,-0.44148 -0.95903,-0.15887 -1.12448,-0.27976 -1.12448,-0.82164 0,-0.93282 -0.8787,-3.08666 -1.69689,-4.15936 -1.05747,-1.38642 -3.33299,-2.83967 -5.09587,-3.25444 -0.99719,-0.23462 -3.20015,-0.36418 -6.23797,-0.36685 l -4.69635,-0.004 0.006,-1.91823 c 0.006,-1.88942 0.0182,-1.92419 0.83968,-2.31511 1.73387,-0.82514 2.38445,-3.82613 1.20512,-5.55894 -1.04669,-1.537902 -1.89102,-1.98168 -3.77032,-1.98168 -1.27861,0 -1.85979,0.130373 -2.42799,0.54466 -0.87842,0.64047 -1.9401,2.58943 -1.93182,3.5463 0.01,1.11841 0.97399,2.90032 1.83461,3.39009 0.77559,0.44138 0.80212,0.519 0.80374,2.35156 l 0.002,1.89511 -5.490104,0.0893 c -5.2665,0.0856 -5.54987,0.11729 -6.95739,0.77747 -1.83394,0.86019 -3.2495,2.08882 -4.12205,3.57771 -0.70742,1.20713 -1.47128,3.66652 -1.21758,3.92022 0.0815,0.0815 -0.17309,0.14824 -0.56582,0.14824 -1.0603,0 -2.45088,0.66241 -2.93199,1.39667 -0.59302,0.905061 -0.81629,3.792661 -0.42073,5.441511 0.41159,1.7157 1.69349,2.9514 3.06175,2.9514 h 0.91683 v 1.71979 1.71979 h 19.446874 19.44688 z m -30.478794,-4.94058 -0.77339,-0.7734 v -3.43964 c 0,-3.304521 0.0266,-3.471251 0.6774,-4.244681 0.85065,-1.01093 2.0746,-1.27147 3.39039,-0.7217 1.49196,0.62338 1.81474,1.66661 1.70809,5.520641 -0.0853,3.08295 -0.10459,3.17111 -0.8297,3.79423 -1.1309,0.97184 -3.1304,0.90693 -4.17279,-0.13545 z m 18.356664,0.45668 c -1.02971,-0.4975 -1.40301,-1.76183 -1.40256,-4.75035 5.1e-4,-3.416801 0.40152,-4.409021 2.00609,-4.963771 0.98157,-0.33937 1.17511,-0.32726 2.11458,0.13229 1.54986,0.75812 1.72489,1.31563 1.64065,5.225731 -0.0723,3.35508 -0.0824,3.40485 -0.81555,4.0349 -0.8083,0.69458 -2.46041,0.84435 -3.54321,0.3212 z"
       id="path1" /></g></svg>
